<?xml version="1.0" encoding="utf-8"?>
<!-- Generator: Adobe Illustrator 23.0.2, SVG Export Plug-In . SVG Version: 6.00 Build 0)  -->
<svg version="1.0" xmlns="http://www.w3.org/2000/svg" xmlns:xlink="http://www.w3.org/1999/xlink" x="0px" y="0px" width="24px"
	 height="24px" viewBox="0 0 24 24" enable-background="new 0 0 24 24" xml:space="preserve">
<g id="White">
</g>
<g id="Black">
	<path d="M20.5,3.5C18.2,1.2,15.2,0,12,0S5.8,1.2,3.5,3.5S0,8.8,0,12s1.2,6.2,3.5,8.5S8.8,24,12,24s6.2-1.2,8.5-3.5S24,15.2,24,12
		S22.8,5.8,20.5,3.5z M19.5,19.5c-2,2-4.7,3.1-7.5,3.1s-5.5-1.1-7.5-3.1c-4.1-4.1-4.1-10.9,0-15c2-2,4.7-3.1,7.5-3.1
		s5.5,1.1,7.5,3.1C23.7,8.6,23.7,15.4,19.5,19.5z"/>
</g>
<g id="Color">
</g>
</svg>
