<?xml version="1.0" encoding="utf-8"?>
<!-- Generator: Adobe Illustrator 23.0.2, SVG Export Plug-In . SVG Version: 6.00 Build 0)  -->
<svg version="1.0" xmlns="http://www.w3.org/2000/svg" xmlns:xlink="http://www.w3.org/1999/xlink" x="0px" y="0px" width="24px"
	 height="24px" viewBox="0 0 24 24" enable-background="new 0 0 24 24" xml:space="preserve">
<g id="White">
	<g>
		<path fill="#FFFFFF" d="M22.2,3.4c-1.3-1.3-2.9-1.9-4.7-1.9c-1.8,0-3.4,0.7-4.7,1.9l-0.7,0.7l-0.7-0.7c-1.3-1.3-2.9-2-4.7-2
			C5,1.5,3.3,2.1,2.1,3.4C0.8,4.7,0.1,6.3,0.1,8.1c0,1.8,0.7,3.4,2,4.7l9.6,9.6c0.1,0.1,0.3,0.2,0.5,0.2s0.4-0.1,0.5-0.2l9.6-9.5
			c1.3-1.3,1.9-2.9,1.9-4.7C24.1,6.3,23.5,4.7,22.2,3.4z M21.2,11.8l-9.1,9.1l-9.1-9.1c-1-1-1.5-2.3-1.5-3.7S2.1,5.4,3,4.4
			c1-1,2.3-1.5,3.7-1.5c1.4,0,2.7,0.5,3.7,1.5l1.1,1.1c0.3,0.3,0.7,0.3,1,0l1.1-1.1c1-1,2.3-1.5,3.7-1.5c1.4,0,2.7,0.5,3.7,1.5
			c1,1,1.5,2.3,1.5,3.7C22.8,9.5,22.2,10.8,21.2,11.8z"/>
	</g>
</g>
<g id="Black">
</g>
<g id="Color">
</g>
</svg>
