<?xml version="1.0" encoding="utf-8"?>
<!-- Generator: Adobe Illustrator 23.0.2, SVG Export Plug-In . SVG Version: 6.00 Build 0)  -->
<svg version="1.0" xmlns="http://www.w3.org/2000/svg" xmlns:xlink="http://www.w3.org/1999/xlink" x="0px" y="0px" width="24px"
	 height="24px" viewBox="0 0 24 24" enable-background="new 0 0 24 24" xml:space="preserve">
<g id="White">
	<g>
		<g>
			<path fill="#FFFFFF" d="M22.2,3.5h-5V2.6c0-1.5-1.2-2.6-2.6-2.6H9.9C8.4,0,7.2,1.2,7.2,2.6v0.8h-5c-0.4,0-0.7,0.3-0.7,0.7
				s0.3,0.7,0.7,0.7h1.2v15.7C3.4,22.4,5,24,7,24h10.5c2,0,3.6-1.6,3.6-3.6V4.8h1.2c0.4,0,0.7-0.3,0.7-0.7S22.6,3.5,22.2,3.5z
				 M8.6,2.6c0-0.7,0.6-1.3,1.3-1.3h4.7c0.7,0,1.3,0.6,1.3,1.3v0.8H8.6V2.6z M19.7,20.4c0,1.2-1,2.2-2.2,2.2H7c-1.2,0-2.2-1-2.2-2.2
				V4.8h14.9L19.7,20.4L19.7,20.4z"/>
			<path fill="#FFFFFF" d="M12.2,20.3c0.4,0,0.7-0.3,0.7-0.7V7.8c0-0.4-0.3-0.7-0.7-0.7s-0.7,0.3-0.7,0.7v11.8
				C11.6,20,11.9,20.3,12.2,20.3z"/>
			<path fill="#FFFFFF" d="M7.9,19.5c0.4,0,0.7-0.3,0.7-0.7V8.6c0-0.4-0.3-0.7-0.7-0.7c-0.4,0-0.7,0.3-0.7,0.7v10.3
				C7.2,19.2,7.5,19.5,7.9,19.5z"/>
			<path fill="#FFFFFF" d="M16.6,19.5c0.4,0,0.7-0.3,0.7-0.7V8.6c0-0.4-0.3-0.7-0.7-0.7s-0.7,0.3-0.7,0.7v10.3
				C15.9,19.2,16.2,19.5,16.6,19.5z"/>
		</g>
	</g>
</g>
<g id="Black">
</g>
<g id="Color">
</g>
</svg>
