<?xml version="1.0" encoding="utf-8"?>
<!-- Generator: Adobe Illustrator 23.0.2, SVG Export Plug-In . SVG Version: 6.00 Build 0)  -->
<svg version="1.0" xmlns="http://www.w3.org/2000/svg" xmlns:xlink="http://www.w3.org/1999/xlink" x="0px" y="0px" width="24px"
	 height="24px" viewBox="0 0 24 24" enable-background="new 0 0 24 24" xml:space="preserve">
<g id="White">
</g>
<g id="Black">
</g>
<g id="Color">
	<g>
		<path fill="#00A12F" d="M24,9.2c-0.1-0.2-0.3-0.4-0.5-0.5l-7.5-1.1l-3.4-6.8c-0.1-0.2-0.3-0.4-0.6-0.4l0,0c-0.3,0-0.5,0.1-0.6,0.4
			L8.1,7.7L0.6,8.8C0.3,8.9,0.1,9,0,9.3C0,9.5,0,9.8,0.2,10l5.4,5.3l-1.3,7.5c0,0.3,0.1,0.5,0.3,0.7c0.1,0.1,0.3,0.1,0.4,0.1
			c0.1,0,0.2,0,0.3-0.1l6.7-3.5l6.7,3.5c0.1,0,0.2,0.1,0.3,0.1l0,0c0.4,0,0.7-0.3,0.7-0.7c0-0.1,0-0.1,0-0.2l-1.3-7.4l5.4-5.3
			C24,9.7,24,9.4,24,9.2z M17.2,14.5c-0.2,0.2-0.2,0.4-0.2,0.6l1.1,6.5l-5.8-3c-0.2-0.1-0.4-0.1-0.6,0l-5.8,3.1L7,15.1
			c0-0.2,0-0.4-0.2-0.6L2.1,9.9l6.5-1c0.2,0,0.4-0.2,0.5-0.4L12,2.7l2.9,5.9C15,8.8,15.2,8.9,15.4,9l6.5,0.9L17.2,14.5z"/>
	</g>
</g>
</svg>
