<?xml version="1.0" encoding="utf-8"?>
<!-- Generator: Adobe Illustrator 23.0.2, SVG Export Plug-In . SVG Version: 6.00 Build 0)  -->
<svg version="1.0" xmlns="http://www.w3.org/2000/svg" xmlns:xlink="http://www.w3.org/1999/xlink" x="0px" y="0px" width="24px"
	 height="24px" viewBox="0 0 24 24" enable-background="new 0 0 24 24" xml:space="preserve">
<g id="White">
</g>
<g id="Black">
</g>
<g id="Color">
	<g>
		<path fill="#00A12F" d="M20.4,3.5C18.2,1.2,15.2,0,12,0S5.7,1.2,3.5,3.5S0,8.8,0,12s1.2,6.2,3.5,8.5S8.8,24,12,24s6.2-1.2,8.5-3.5
			S24,15.2,24,12S22.7,5.8,20.4,3.5z M19.5,19.5c-2,2-4.7,3.1-7.5,3.1s-5.5-1.1-7.5-3.1c-4.1-4.1-4.1-10.9,0-15c2-2,4.7-3.1,7.5-3.1
			s5.5,1.1,7.5,3.1C23.6,8.6,23.6,15.4,19.5,19.5z"/>
		<g>
			<path fill="#00A12F" d="M10.7,18c-0.2,0-0.3-0.1-0.4-0.2l-4.1-4.1c-0.2-0.2-0.2-0.6,0-0.9c0.2-0.2,0.6-0.2,0.9,0l3.6,3.6
				l6.2-10.1C17,6,17.4,5.9,17.7,6.1c0.3,0.2,0.4,0.6,0.2,0.9l-6.6,10.8C11.2,17.9,11,18,10.7,18C10.8,18,10.7,18,10.7,18z"/>
		</g>
	</g>
</g>
</svg>
