<?xml version="1.0" encoding="utf-8"?>
<!-- Generator: Adobe Illustrator 23.0.2, SVG Export Plug-In . SVG Version: 6.00 Build 0)  -->
<svg version="1.0" xmlns="http://www.w3.org/2000/svg" xmlns:xlink="http://www.w3.org/1999/xlink" x="0px" y="0px" width="24px"
	 height="24px" viewBox="0 0 24 24" enable-background="new 0 0 24 24" xml:space="preserve">
<g id="White">
	<g>
		<g>
			<path fill="#FFFFFF" d="M20.5,3.5C18.2,1.2,15.2,0,12,0S5.8,1.2,3.5,3.5c-4.4,4.4-4.7,11.4-0.8,16.1c-0.4,0.8-1,1.7-1.9,2.1
				C0.4,22,0.1,22.5,0.2,23s0.5,0.9,0.9,0.9c0.2,0,0.6,0.1,0.9,0.1c1.1,0,2.6-0.2,4.2-1.4c1.8,1,3.7,1.4,5.7,1.4
				c3.1,0,6.2-1.2,8.5-3.5c2.3-2.3,3.5-5.3,3.5-8.5S22.7,5.8,20.5,3.5z M19.5,19.5c-3.4,3.4-8.7,4.1-12.9,1.7
				C6.3,21,6,21.1,5.8,21.3c0,0,0,0-0.1,0c-1.4,1.1-2.7,1.3-3.6,1.3h0c1-0.8,1.7-1.9,2.1-2.7c0.1-0.1,0.1-0.3,0-0.4
				c0-0.1-0.1-0.3-0.2-0.4C0.3,14.8,0.5,8.5,4.5,4.5c4.1-4.1,10.9-4.1,15,0C23.7,8.6,23.7,15.4,19.5,19.5z"/>
			<circle fill="#FFFFFF" cx="12" cy="12" r="0.8"/>
			<circle fill="#FFFFFF" cx="16.3" cy="12" r="0.8"/>
			<circle fill="#FFFFFF" cx="7.7" cy="12" r="0.8"/>
		</g>
	</g>
</g>
<g id="Black">
</g>
<g id="Color">
</g>
</svg>
