<?xml version="1.0" encoding="utf-8"?>
<!-- Generator: Adobe Illustrator 23.0.2, SVG Export Plug-In . SVG Version: 6.00 Build 0)  -->
<svg version="1.0" xmlns="http://www.w3.org/2000/svg" xmlns:xlink="http://www.w3.org/1999/xlink" x="0px" y="0px" width="24px"
	 height="24px" viewBox="0 0 24 24" enable-background="new 0 0 24 24" xml:space="preserve">
<g id="White">
	<g>
		<g>
			<path fill="#FFFFFF" d="M19.9,4.9h-0.6V3.5c0-2-1.6-3.5-3.5-3.5H8.3c-2,0-3.5,1.6-3.5,3.5v1.4H4.2c-2,0-3.5,1.6-3.5,3.5v5.7
				c0,2,1.6,3.5,3.5,3.5h0.6v4.5c0,1,0.8,1.8,1.8,1.8h11c1,0,1.8-0.8,1.8-1.8v-4.5h0.6c2,0,3.5-1.6,3.5-3.5V8.5
				C23.5,6.5,21.9,4.9,19.9,4.9z M6.1,3.5c0-1.2,1-2.2,2.2-2.2h7.4c1.2,0,2.2,1,2.2,2.2v1.4H6.1V3.5z M17.9,22.2
				c0,0.2-0.2,0.4-0.4,0.4h-11c-0.2,0-0.4-0.2-0.4-0.4v-7.4h11.9V22.2z M22.1,14.2c0,1.2-1,2.2-2.2,2.2h-0.6v-1.6h0.9
				c0.4,0,0.7-0.3,0.7-0.7c0-0.4-0.3-0.7-0.7-0.7H3.8c-0.4,0-0.7,0.3-0.7,0.7c0,0.4,0.3,0.7,0.7,0.7h1v1.6H4.2c-1.2,0-2.2-1-2.2-2.2
				V8.5c0-1.2,1-2.2,2.2-2.2h15.7c1.2,0,2.2,1,2.2,2.2V14.2z"/>
			<path fill="#FFFFFF" d="M7.7,18.1h8.6c0.4,0,0.7-0.3,0.7-0.7c0-0.4-0.3-0.7-0.7-0.7H7.7c-0.4,0-0.7,0.3-0.7,0.7
				C7,17.8,7.3,18.1,7.7,18.1z"/>
			<path fill="#FFFFFF" d="M16.3,19.5H7.8c-0.4,0-0.7,0.3-0.7,0.7s0.3,0.7,0.7,0.7h8.6c0.4,0,0.7-0.3,0.7-0.7S16.7,19.5,16.3,19.5z"
				/>
			<path fill="#FFFFFF" d="M19.9,7.6h-1.4c-0.4,0-0.7,0.3-0.7,0.7c0,0.4,0.3,0.7,0.7,0.7h1.4c0.4,0,0.7-0.3,0.7-0.7
				C20.6,7.9,20.3,7.6,19.9,7.6z"/>
		</g>
	</g>
</g>
<g id="Black">
</g>
<g id="Color">
</g>
</svg>
