<?xml version="1.0" encoding="utf-8"?>
<!-- Generator: Adobe Illustrator 23.0.2, SVG Export Plug-In . SVG Version: 6.00 Build 0)  -->
<svg version="1.0" xmlns="http://www.w3.org/2000/svg" xmlns:xlink="http://www.w3.org/1999/xlink" x="0px" y="0px" width="24px"
	 height="24px" viewBox="0 0 24 24" enable-background="new 0 0 24 24" xml:space="preserve">
<g id="White">
	<g>
		<g>
			<path fill="#FFFFFF" d="M22.9,11.7c-0.4,0-0.7,0.3-0.7,0.7v6c0,1.6-1.3,3-3,3H4.8c-1.6,0-3-1.3-3-3v-6.1c0-0.4-0.3-0.7-0.7-0.7
				s-0.7,0.3-0.7,0.7v6.1c0,2.4,1.9,4.3,4.3,4.3h14.5c2.4,0,4.3-1.9,4.3-4.3v-6C23.5,12,23.2,11.7,22.9,11.7z"/>
			<path fill="#FFFFFF" d="M8.3,6.6l3.1-3.1V17c0,0.4,0.3,0.7,0.7,0.7s0.7-0.3,0.7-0.7V3.6l3.1,3.1c0.1,0.1,0.3,0.2,0.5,0.2
				c0.2,0,0.3-0.1,0.5-0.2c0.3-0.3,0.3-0.7,0-0.9l-4.2-4.2c-0.1-0.1-0.3-0.2-0.5-0.2c-0.2,0-0.3,0.1-0.5,0.2L7.3,5.7
				C7.1,6,7.1,6.4,7.3,6.6C7.6,6.9,8,6.9,8.3,6.6z"/>
		</g>
	</g>
</g>
<g id="Black">
</g>
<g id="Color">
</g>
</svg>
