<?xml version="1.0" encoding="utf-8"?>
<!-- Generator: Adobe Illustrator 23.0.2, SVG Export Plug-In . SVG Version: 6.00 Build 0)  -->
<svg version="1.0" xmlns="http://www.w3.org/2000/svg" xmlns:xlink="http://www.w3.org/1999/xlink" x="0px" y="0px" width="24px"
	 height="24px" viewBox="0 0 24 24" enable-background="new 0 0 24 24" xml:space="preserve">
<g id="White">
	<g>
		<path fill="#FFFFFF" d="M23.8,0.2C23.6,0,23.3,0,23,0.1L0.4,10C0.2,10.1,0,10.3,0,10.6c0,0.3,0.1,0.5,0.3,0.6l7.9,4.5l4.7,8
			c0.1,0.2,0.4,0.3,0.6,0.3c0,0,0,0,0,0c0.3,0,0.5-0.2,0.6-0.4L23.9,1C24.1,0.7,24,0.4,23.8,0.2z M20.2,2.8L8.6,14.3l-6.4-3.6
			L20.2,2.8z M13.4,21.8l-3.8-6.5L21.2,3.7L13.4,21.8z"/>
	</g>
</g>
<g id="Black">
</g>
<g id="Color">
</g>
</svg>
