<?xml version="1.0" encoding="utf-8"?>
<!-- Generator: Adobe Illustrator 23.0.0, SVG Export Plug-In . SVG Version: 6.00 Build 0)  -->
<svg version="1.0" id="Capa_1" xmlns="http://www.w3.org/2000/svg" xmlns:xlink="http://www.w3.org/1999/xlink" x="0px" y="0px"
	 width="24px" height="24px" viewBox="0 0 24 24" style="enable-background:new 0 0 24 24;" xml:space="preserve">
<g>
	<path style="fill:#7AD06D;" d="M11.5,0C5.1,0.3,0.1,5.6,0.2,11.9c0,1.9,0.5,3.8,1.3,5.4l-1.3,6.1c-0.1,0.3,0.2,0.6,0.6,0.5l6-1.4
		c1.5,0.8,3.3,1.2,5.1,1.2c6.5,0.1,11.9-5,12.1-11.5C24.2,5.3,18.5-0.3,11.5,0z M18.7,18.5c-1.8,1.8-4.1,2.7-6.6,2.7
		c-1.5,0-2.9-0.3-4.1-1l-0.8-0.4l-3.7,0.9l0.8-3.8l-0.4-0.8c-0.7-1.3-1-2.7-1-4.2c0-2.5,1-4.8,2.7-6.6c1.7-1.7,4.1-2.7,6.6-2.7
		c2.5,0,4.8,1,6.6,2.7c1.8,1.8,2.7,4.1,2.7,6.6C21.4,14.4,20.4,16.7,18.7,18.5z"/>
	<path style="fill:#7AD06D;" d="M17.8,14.5l-2.3-0.7c-0.3-0.1-0.6,0-0.9,0.2l-0.6,0.6c-0.2,0.2-0.6,0.3-0.9,0.2
		c-1.1-0.4-3.4-2.5-4-3.5c-0.2-0.3-0.1-0.7,0.1-0.9l0.5-0.6C10,9.5,10,9.2,9.9,8.9l-1-2.2C8.7,6.2,8,6,7.6,6.4
		C6.9,6.9,6.2,7.7,6.1,8.7c-0.2,1.6,0.5,3.7,3.1,6.1c3,2.8,5.5,3.2,7,2.8c0.9-0.2,1.6-1.1,2.1-1.8C18.6,15.3,18.4,14.6,17.8,14.5z"
		/>
</g>
</svg>
