<?xml version="1.0" encoding="utf-8"?>
<!-- Generator: Adobe Illustrator 23.0.0, SVG Export Plug-In . SVG Version: 6.00 Build 0)  -->
<svg version="1.0" id="Capa_1" xmlns="http://www.w3.org/2000/svg" xmlns:xlink="http://www.w3.org/1999/xlink" x="0px" y="0px"
	 width="24px" height="24px" viewBox="0 0 24 24" style="enable-background:new 0 0 24 24;" xml:space="preserve">
<g>
	
		<linearGradient id="SVGID_1_" gradientUnits="userSpaceOnUse" x1="12.517" y1="134.9301" x2="12.517" y2="111.1864" gradientTransform="matrix(1 0 0 1 0 -111)">
		<stop  offset="0" style="stop-color:#E09B3D"/>
		<stop  offset="0.3" style="stop-color:#C74C4D"/>
		<stop  offset="0.6" style="stop-color:#C21975"/>
		<stop  offset="1" style="stop-color:#7024C4"/>
	</linearGradient>
	<path style="fill:url(#SVGID_1_);" d="M17.4,0H7.7C3.7,0,0.5,3.2,0.5,7.1v9.7c0,3.9,3.2,7.1,7.1,7.1h9.7c3.9,0,7.1-3.2,7.1-7.1V7.1
		C24.5,3.2,21.3,0,17.4,0z M22.1,16.9c0,2.6-2.1,4.7-4.7,4.7H7.7c-2.6,0-4.7-2.1-4.7-4.7V7.1c0-2.6,2.1-4.7,4.7-4.7h9.7
		c2.6,0,4.7,2.1,4.7,4.7L22.1,16.9L22.1,16.9z"/>
	
		<linearGradient id="SVGID_2_" gradientUnits="userSpaceOnUse" x1="12.517" y1="134.9301" x2="12.517" y2="111.1864" gradientTransform="matrix(1 0 0 1 0 -111)">
		<stop  offset="0" style="stop-color:#E09B3D"/>
		<stop  offset="0.3" style="stop-color:#C74C4D"/>
		<stop  offset="0.6" style="stop-color:#C21975"/>
		<stop  offset="1" style="stop-color:#7024C4"/>
	</linearGradient>
	<path style="fill:url(#SVGID_2_);" d="M12.5,5.8c-3.4,0-6.2,2.8-6.2,6.2s2.8,6.2,6.2,6.2s6.2-2.8,6.2-6.2S15.9,5.8,12.5,5.8z
		 M12.5,15.8c-2.1,0-3.8-1.7-3.8-3.8s1.7-3.8,3.8-3.8c2.1,0,3.8,1.7,3.8,3.8C16.3,14.1,14.6,15.8,12.5,15.8z"/>
	
		<linearGradient id="SVGID_3_" gradientUnits="userSpaceOnUse" x1="18.7363" y1="134.9301" x2="18.7363" y2="111.1864" gradientTransform="matrix(1 0 0 1 0 -111)">
		<stop  offset="0" style="stop-color:#E09B3D"/>
		<stop  offset="0.3" style="stop-color:#C74C4D"/>
		<stop  offset="0.6" style="stop-color:#C21975"/>
		<stop  offset="1" style="stop-color:#7024C4"/>
	</linearGradient>
	<circle style="fill:url(#SVGID_3_);" cx="18.7" cy="5.8" r="1.5"/>
</g>
</svg>
