<?xml version="1.0" encoding="utf-8"?>
<!-- Generator: Adobe Illustrator 23.0.0, SVG Export Plug-In . SVG Version: 6.00 Build 0)  -->
<svg version="1.0" id="Capa_1" xmlns="http://www.w3.org/2000/svg" xmlns:xlink="http://www.w3.org/1999/xlink" x="0px" y="0px"
	 width="24px" height="24px" viewBox="0 0 24 24" style="enable-background:new 0 0 24 24;" xml:space="preserve">
<path d="M23.3,4.3c-0.5,0.2-1.1,0.4-1.7,0.6c0.6-0.6,1.1-1.3,1.4-2.2l0,0c0.1-0.2-0.2-0.4-0.4-0.3l0,0c-0.8,0.5-1.6,0.8-2.5,1
	c-0.1,0-0.1,0-0.2,0c-0.2,0-0.3-0.1-0.4-0.2C18.5,2.5,17.3,2,16,2c-0.5,0-1.1,0.1-1.6,0.3c-1.7,0.5-3,1.9-3.4,3.6
	c-0.2,0.6-0.2,1.3-0.1,1.9c0,0.1,0,0.1,0,0.1c0,0-0.1,0.1-0.1,0.1c0,0,0,0,0,0C7,7.7,3.7,5.9,1.3,3l0,0C1.2,2.9,1,2.9,0.9,3.1l0,0
	C0.4,3.8,0.2,4.7,0.2,5.7c0,1.4,0.6,2.7,1.5,3.7C1.3,9.2,0.9,9.1,0.6,8.9l0,0c-0.2-0.1-0.4,0-0.4,0.2l0,0c0,2.1,1.2,3.9,3,4.8
	c0,0-0.1,0-0.1,0c-0.3,0-0.6,0-0.9-0.1l0,0c-0.2,0-0.4,0.2-0.3,0.3l0,0C2.5,16,4.1,17.4,6,17.7c-1.6,1.1-3.4,1.6-5.3,1.6l-0.6,0
	c-0.2,0-0.3,0.1-0.4,0.3c0,0.2,0,0.4,0.2,0.5C2,21.3,4.5,22,7,22c2.2,0,4.2-0.4,6.1-1.3c1.7-0.8,3.2-1.9,4.5-3.3
	c1.2-1.3,2.1-2.9,2.7-4.6c0.6-1.6,0.9-3.4,0.9-5V7.7c0-0.3,0.1-0.5,0.3-0.7c0.8-0.6,1.5-1.4,2.1-2.3l0,0C23.7,4.5,23.5,4.2,23.3,4.3
	L23.3,4.3z"/>
</svg>
