<?xml version="1.0" encoding="utf-8"?>
<!-- Generator: Adobe Illustrator 23.0.0, SVG Export Plug-In . SVG Version: 6.00 Build 0)  -->
<svg version="1.0" id="Capa_1" xmlns="http://www.w3.org/2000/svg" xmlns:xlink="http://www.w3.org/1999/xlink" x="0px" y="0px"
	 width="24px" height="24px" viewBox="0 0 24 24" style="enable-background:new 0 0 24 24;" xml:space="preserve">
<path style="fill:#FFFFFF;" d="M24.2,12.4C24.4,5.5,18.9-0.1,12,0C5.5,0.1,0.2,5.5,0.2,12.1c0,4.7,2.8,8.8,6.8,10.7
	c0.2,0.1,0.5-0.1,0.5-0.3c0-0.8,0-1.6,0.2-2.3c0.2-0.7,0.7-3.2,1.1-4.8c0.2-0.8,0.2-1.6,0.1-2.5c-0.1-0.3-0.1-0.6-0.1-0.9
	c0-1.8,1-3.1,2.3-3.1c1.1,0,1.6,0.8,1.6,1.8c0,1.1-0.7,2.7-1.1,4.2c-0.3,1.3,0.6,2.3,1.9,2.3c2.3,0,4-2.4,4-5.8
	c0-3.1-2.2-5.2-5.3-5.2c-3.6,0-5.8,2.7-5.8,5.5c0,1.1,0.4,2.3,0.9,2.9c0.1,0.1,0.1,0.2,0.1,0.4c-0.1,0.4-0.3,1.3-0.4,1.4
	c-0.1,0.2-0.2,0.3-0.4,0.2c-1.6-0.7-2.6-3.1-2.6-4.9C4.1,7.7,7,4,12.5,4c4.4,0,7.9,3.2,7.9,7.4c0,4.4-2.8,7.9-6.6,7.9
	c-1,0-2-0.4-2.6-1c-0.2-0.2-0.5-0.1-0.5,0.1c-0.2,0.8-0.5,2-0.6,2.4c-0.2,0.7-0.6,1.6-1,2.3c-0.1,0.2,0,0.4,0.2,0.5
	c1,0.2,2,0.4,3.1,0.4C18.6,23.9,24,18.6,24.2,12.4z"/>
</svg>
