<?xml version="1.0" encoding="utf-8"?>
<!-- Generator: Adobe Illustrator 23.0.0, SVG Export Plug-In . SVG Version: 6.00 Build 0)  -->
<svg version="1.0" id="Capa_1" xmlns="http://www.w3.org/2000/svg" xmlns:xlink="http://www.w3.org/1999/xlink" x="0px" y="0px"
	 width="24px" height="24px" viewBox="0 0 24 24" style="enable-background:new 0 0 24 24;" xml:space="preserve">
<g>
	<g>
		<path style="fill:#FFFFFF;" d="M3.5,1C5,1,6.1,2.2,6.1,3.7c0,1.5-1.3,2.7-2.7,2.6c-1.4,0-2.6-1.1-2.6-2.6C0.8,2.2,2,1,3.5,1z"/>
		<path style="fill:#FFFFFF;" d="M5,23H1.9c-0.4,0-0.7-0.3-0.7-0.7V9c0-0.4,0.3-0.7,0.7-0.7H5c0.4,0,0.7,0.3,0.7,0.7v13.2
			C5.8,22.7,5.4,23,5,23z"/>
		<path style="fill:#FFFFFF;" d="M22.9,13c0-2.8-2.2-5-5-5h-0.8c-1.5,0-2.9,0.8-3.7,1.9c-0.1,0.1-0.2,0.3-0.2,0.4c0,0,0,0,0,0V8.6
			c0-0.2-0.1-0.3-0.3-0.3H9c-0.2,0-0.3,0.1-0.3,0.3v14.1C8.7,22.9,8.8,23,9,23l4,0c0.2,0,0.3-0.1,0.3-0.3v-8.1
			c0-1.4,1.1-2.6,2.5-2.6c0.7,0,1.4,0.3,1.8,0.7c0.5,0.5,0.7,1.1,0.7,1.8v8.2c0,0.2,0.1,0.3,0.3,0.3l4,0c0.2,0,0.3-0.1,0.3-0.3
			L22.9,13L22.9,13z"/>
	</g>
</g>
</svg>
