<svg xmlns="http://www.w3.org/2000/svg" width="254" height="55.157" viewBox="0 0 254 55.157">
  <g id="Grupo_7150" data-name="Grupo 7150" transform="translate(-216 -5647.485)">
    <g id="Grupo_7006" data-name="Grupo 7006" transform="translate(216.347 5647.485)">
      <path id="Trazado_50947" data-name="Trazado 50947" d="M67.872,217.974l-4.454-4.14,7.046-3.64h63.481a3.729,3.729,0,0,1,2.143.745,5.059,5.059,0,0,1,1.68,1.771,11.722,11.722,0,0,1,.836,5.219Z" transform="translate(-63.418 -210.193)" fill="#ff3600"/>
      <path id="Trazado_50948" data-name="Trazado 50948" d="M601.251,241.316l-2.236,8.481H583.869l-1.074,3.931c.007.018,42.562.076,42.562.076q2.285-.278,2.283-2.236a2.725,2.725,0,0,0-.327-1.584,2.76,2.76,0,0,0-1.4-.792h-9a5.628,5.628,0,0,1-4.287-1.446q-1.347-1.491-1.349-4.8v-1.631l18.663,0c2.632.134,5.045.114,7.01,1.487a7.163,7.163,0,0,1,2.516,2.749c.971,1.762.885,3.185.885,5.08a12.233,12.233,0,0,1-3.867,8.992,12.591,12.591,0,0,1-5.777,2.982l-62.639-.046,5.683-21.248Z" transform="translate(-392.039 -230.459)" fill="#fff"/>
      <path id="Trazado_50949" data-name="Trazado 50949" d="M98.2,242.481l-2.469,9.132a15.941,15.941,0,0,1-3.121,6.2q-4.055,4.753-11.788,4.753H75.233q-8.11,0-9.928-4.613a9.259,9.259,0,0,1-.745-3.4,11.679,11.679,0,0,1,.467-2.982l2.891-10.252H78.912l-2.749,9.6a4.7,4.7,0,0,0-.233,1.165,1.169,1.169,0,0,0,.931,1.211h6.617a2.8,2.8,0,0,0,1.863-2.376l.093-.558-6.9.092,4.939-7.968Z" transform="translate(-64.162 -230.459)" fill="#fff" fill-rule="evenodd"/>
      <path id="Trazado_50950" data-name="Trazado 50950" d="M203.334,241.316a8.718,8.718,0,0,1-3.263,5.358,6.673,6.673,0,0,1-2.189,1.444,6.491,6.491,0,0,1,1.073,3.542,19.794,19.794,0,0,1-.329,3.028q-.185,1.212-2.419,7.875h-10.44l3.73-12.814H177.721l-3.961,12.814h-10.08l6.246-21.248Z" transform="translate(-128.705 -230.459)" fill="#fff" fill-rule="evenodd"/>
      <path id="Trazado_50951" data-name="Trazado 50951" d="M313.126,210.594l-2.192,7.688H300.31l2.145-7.688Zm-19.386,0-2.144,7.688H281.11l2.192-7.642Zm16.449,10.717-5.872,21.248-17.052.046q-8.017,0-9.926-4.8a7.084,7.084,0,0,1-.511-2.61,5.1,5.1,0,0,1,.186-1.4l3.447-12.487H290.8L287.5,232.866a4.613,4.613,0,0,0-.233,1.165,1.169,1.169,0,0,0,.931,1.212h7.457l3.912-13.933Z" transform="translate(-202.384 -210.454)" fill="#fff" fill-rule="evenodd"/>
      <path id="Trazado_50952" data-name="Trazado 50952" d="M417.383,217.974H381.548l4.8-7.781h26.329a3.949,3.949,0,0,1,2.189.745,4.639,4.639,0,0,1,1.629,1.771A11.614,11.614,0,0,1,417.383,217.974Zm-.84,3.076a10.865,10.865,0,0,1-.887,2.7q-2.748,5.731-13.14,5.731H391.8l-3.59,12.814h-10.67l5.823-21.2Z" transform="translate(-267.967 -210.193)" fill="#fff" fill-rule="evenodd"/>
      <path id="Trazado_50953" data-name="Trazado 50953" d="M503.208,210.193l-2.327,7.781H489.6l2.144-7.688Zm8.761,24.184-6.523,7.921H482.8l6.012-21.248h11.322l-3.729,13.28Z" transform="translate(-336.509 -210.193)" fill="#fff" fill-rule="evenodd"/>
      <path id="Trazado_50954" data-name="Trazado 50954" d="M611.325,210.193l-2.051,7.828H578.9l5.03-7.828Z" transform="translate(-399.084 -210.193)" fill="#fff" fill-rule="evenodd"/>
      <path id="Trazado_50955" data-name="Trazado 50955" d="M721.951,210.193l4.429,3.712-6.527,4.023H691.988a11.885,11.885,0,0,1,3.587-5.267,8.812,8.812,0,0,1,5.779-2.469Z" transform="translate(-472.727 -210.193)" fill="#fff" fill-rule="evenodd"/>
    </g>
    <g id="Grupo_6844" data-name="Grupo 6844" transform="translate(216 5683.454)">
      <path id="Trazado_50956" data-name="Trazado 50956" d="M66.9,328.193H64.106l2.586-12.165H62.424l.508-2.386h11.33l-.508,2.386H69.486Z" transform="translate(-62.424 -313.525)" fill="#ff3600"/>
      <path id="Trazado_50957" data-name="Trazado 50957" d="M99.105,325.939l-.343,1.338h.1a3.324,3.324,0,0,1,3.025-1.455c2.154,0,2.405,1.281,2,3.2l-.173.815h-2.289l.111-.524c.219-1.028.25-1.63-.9-1.63-1.455,0-2.059.834-2.3,2.154L97,336.124H94.553l2.166-10.185Z" transform="translate(-83.346 -321.456)" fill="#ff3600"/>
      <path id="Trazado_50958" data-name="Trazado 50958" d="M135.708,334.844h-.058c-.774,1.358-2.276,1.4-3.459,1.4-2.309,0-3.7-.485-3.114-3.24.52-2.445,1.944-3.124,4.467-3.124,1.241,0,2.46.02,2.8,1.164h.078l.28-1.319c.351-1.649.339-2.231-1.7-2.231-1.067,0-1.941.1-2.222,1.416h-2.445c.631-2.968,2.693-3.085,5.021-3.085,3.259,0,4.51.5,3.784,3.919l-1.357,6.383h-2.445ZM131.521,333c-.305,1.436.248,1.571,1.9,1.571,1.3,0,2.275-.117,2.585-1.571.3-1.416-.738-1.455-1.941-1.455C132.82,331.545,131.831,331.545,131.521,333Z" transform="translate(-105.739 -321.456)" fill="#ff3600"/>
      <path id="Trazado_50959" data-name="Trazado 50959" d="M173.077,325.939l-.326,1.533h.077c.861-1.494,2.116-1.649,3.552-1.649,2.678,0,3.257,1.106,2.729,3.589l-1.427,6.713h-2.445l1.374-6.46c.314-1.475.091-1.979-1.48-1.979-2.134,0-2.64,1.009-3.027,2.833l-1.192,5.607h-2.445l2.166-10.185Z" transform="translate(-131.476 -321.456)" fill="#ff3600"/>
      <path id="Trazado_50960" data-name="Trazado 50960" d="M216.987,328.713c.26-1.222-.38-1.222-1.68-1.222s-2.192,0-2.477,1.339c-.214,1.009.049,1.048,2.163,1.145,2.381.116,4.552-.058,3.851,3.24-.586,2.755-2.817,3.026-5.4,3.026-2.774,0-4.637,0-3.932-3.317h2.445c-.275,1.474.038,1.649,1.842,1.649,1.455,0,2.3.039,2.6-1.358.19-.893.227-1.339-2.229-1.378-3.732-.058-4.3-.562-3.751-3.162.594-2.794,2.624-2.852,5.244-2.852,2,0,4.376.039,3.77,2.891Z" transform="translate(-158.108 -321.456)" fill="#ff3600"/>
      <path id="Trazado_50961" data-name="Trazado 50961" d="M249.494,327.471h.077a3.793,3.793,0,0,1,3.533-1.649c3.783,0,3.392,2.386,2.728,5.51-.635,2.988-1.451,4.908-4.943,4.908-1.242,0-2.492-.233-2.752-1.474h-.1l-1.225,5.762H244.37l3.1-14.589h2.445Zm3.894,3.861c.491-2.309.834-3.648-1.4-3.648-2.5,0-2.7,1.222-3.22,3.648-.462,2.173-.318,3.046,1.8,3.046C252.254,334.378,252.843,333.893,253.387,331.332Z" transform="translate(-180.903 -321.456)" fill="#ff3600"/>
      <path id="Trazado_50962" data-name="Trazado 50962" d="M298.517,331.041c-.838,3.939-1.649,5.2-5.9,5.2s-4.524-1.261-3.686-5.2c.842-3.957,1.653-5.219,5.9-5.219S299.358,327.083,298.517,331.041Zm-7.144.02c-.577,2.716-.531,3.318,1.642,3.318s2.475-.6,3.053-3.318c.586-2.755.543-3.376-1.63-3.376S291.959,328.305,291.373,331.06Z" transform="translate(-209.674 -321.456)" fill="#ff3600"/>
      <path id="Trazado_50963" data-name="Trazado 50963" d="M331.193,325.939l-.343,1.338h.1a3.325,3.325,0,0,1,3.026-1.455c2.154,0,2.405,1.281,2,3.2l-.173.815h-2.289l.112-.524c.219-1.028.249-1.63-.9-1.63-1.455,0-2.059.834-2.3,2.154l-1.337,6.286h-2.444l2.166-10.185Z" transform="translate(-234.475 -321.456)" fill="#ff3600"/>
      <path id="Trazado_50964" data-name="Trazado 50964" d="M362.9,321.846h1.281l.491-2.309h2.445l-.491,2.309h3.9l-.4,1.862h-3.9l-1.11,5.219c-.179.931-.269,1.358.759,1.358,1.377,0,1.453-1.087,1.68-2.154h2.154c-.617,3.085-1.591,4.016-4.23,4.016-2.677,0-3.36-.621-2.811-3.2l1.114-5.238h-1.281Z" transform="translate(-257.826 -317.363)" fill="#ff3600"/>
      <path id="Trazado_50965" data-name="Trazado 50965" d="M402.278,332.884c-.681,3.2-2.557,3.356-5.467,3.356-3.9,0-4.431-1.241-3.594-5.18.775-3.647,1.7-5.238,5.809-5.238,4.191,0,4.493,1.222,3.549,5.665h-7c-.466,2.192-.557,2.891,1.636,2.891,1.358,0,2.3.019,2.626-1.494Zm-1.817-2.949c.445-2.1.168-2.251-1.83-2.251-2.115,0-2.345.446-2.729,2.251Z" transform="translate(-277.606 -321.456)" fill="#ff3600"/>
      <path id="Trazado_50966" data-name="Trazado 50966" d="M462.807,336.749c-1.053,2.309-1.9,4.113-4.755,4.113-.349,0-.686-.058-1.031-.077l.392-1.843a4.5,4.5,0,0,0,.511.058c1.533,0,2.079-1.475,2.544-2.658h-1.183l-1.191-10.185h2.522l.736,8.672h.039l3.823-8.672H467.7Z" transform="translate(-319.375 -321.673)" fill="#ff3600"/>
      <path id="Trazado_50967" data-name="Trazado 50967" d="M533.034,320.252l-.561,2.638c-.916,4.307-2.192,5.2-7.372,5.2-4.656,0-6.229-.815-5.181-5.742l.71-3.337c1.031-4.85,3.114-5.7,7.615-5.7,3.55,0,6.381-.174,5.29,4.5H530.76c.454-2.134-.6-2.115-3.023-2.115-3.259,0-3.677.5-4.314,3.318l-.71,3.337c-.609,3.046-.209,3.356,2.9,3.356,2.658,0,3.485-.058,4.071-2.813l.111-.524h-3.667l.45-2.115Z" transform="translate(-360.131 -313.306)" fill="#ff3600"/>
      <path id="Trazado_50968" data-name="Trazado 50968" d="M576.69,332.884c-.681,3.2-2.557,3.356-5.467,3.356-3.9,0-4.431-1.241-3.593-5.18.775-3.647,1.7-5.238,5.809-5.238,4.191,0,4.493,1.222,3.549,5.665h-7c-.466,2.192-.556,2.891,1.636,2.891,1.358,0,2.3.019,2.626-1.494Zm-1.817-2.949c.446-2.1.168-2.251-1.83-2.251-2.115,0-2.345.446-2.729,2.251Z" transform="translate(-391.179 -321.456)" fill="#ff3600"/>
      <path id="Trazado_50969" data-name="Trazado 50969" d="M613.254,328.713c.26-1.222-.38-1.222-1.68-1.222s-2.192,0-2.477,1.339c-.214,1.009.049,1.048,2.163,1.145,2.381.116,4.552-.058,3.851,3.24-.586,2.755-2.817,3.026-5.4,3.026-2.774,0-4.637,0-3.931-3.317h2.444c-.275,1.474.038,1.649,1.842,1.649,1.455,0,2.3.039,2.6-1.358.19-.893.226-1.339-2.229-1.378-3.732-.058-4.3-.562-3.751-3.162.594-2.794,2.624-2.852,5.244-2.852,2,0,4.376.039,3.77,2.891Z" transform="translate(-416.147 -321.456)" fill="#ff3600"/>
      <path id="Trazado_50970" data-name="Trazado 50970" d="M645.324,321.846h1.28l.491-2.309h2.445l-.491,2.309h3.9l-.4,1.862h-3.9l-1.11,5.219c-.179.931-.269,1.358.759,1.358,1.377,0,1.454-1.087,1.681-2.154h2.153c-.617,3.085-1.591,4.016-4.229,4.016-2.677,0-3.36-.621-2.812-3.2l1.114-5.238h-1.281Z" transform="translate(-441.73 -317.363)" fill="#ff3600"/>
      <path id="Trazado_50971" data-name="Trazado 50971" d="M676.353,328.193h-2.445l2.166-10.185h2.445Zm2.652-12.475h-2.445l.441-2.076h2.445Z" transform="translate(-460.607 -313.525)" fill="#ff3600"/>
      <path id="Trazado_50972" data-name="Trazado 50972" d="M705.627,323.363c-.838,3.939-1.649,5.2-5.9,5.2s-4.524-1.261-3.686-5.2c.841-3.957,1.653-5.219,5.9-5.219S706.469,319.405,705.627,323.363Zm-7.144.02c-.578,2.716-.531,3.318,1.642,3.318s2.476-.6,3.053-3.318c.586-2.755.543-3.376-1.63-3.376S699.069,320.627,698.484,323.382Zm6.151-7.76-4.119,1.668-.309-1.009,3.893-2.25Z" transform="translate(-474.774 -313.778)" fill="#ff3600"/>
      <path id="Trazado_50973" data-name="Trazado 50973" d="M738.862,325.939l-.326,1.533h.078c.861-1.494,2.116-1.649,3.551-1.649,2.678,0,3.257,1.106,2.73,3.589l-1.427,6.713h-2.445l1.374-6.46c.313-1.475.091-1.979-1.481-1.979-2.134,0-2.64,1.009-3.027,2.833l-1.192,5.607h-2.445l2.166-10.185Z" transform="translate(-499.901 -321.456)" fill="#ff3600"/>
    </g>
  </g>
</svg>
