<?xml version="1.0" encoding="utf-8"?>
<!-- Generator: Adobe Illustrator 23.0.2, SVG Export Plug-In . SVG Version: 6.00 Build 0)  -->
<svg version="1.0" xmlns="http://www.w3.org/2000/svg" xmlns:xlink="http://www.w3.org/1999/xlink" x="0px" y="0px" width="24px"
	 height="24px" viewBox="0 0 24 24" enable-background="new 0 0 24 24" xml:space="preserve">
<g id="White">
</g>
<g id="Black">
</g>
<g id="Color">
	<g>
		<path fill="#00A12F" d="M21.6,20.7L20.2,5.3c0-0.3-0.3-0.6-0.7-0.6h-2.8C16.7,2.1,14.6,0,12,0S7.3,2.1,7.3,4.7H4.4
			c-0.3,0-0.6,0.3-0.7,0.6L2.4,20.7c0,0,0,0,0,0.1C2.4,22.6,4,24,6,24h12C20,24,21.6,22.6,21.6,20.7C21.6,20.8,21.6,20.8,21.6,20.7z
			 M12,1.3c1.9,0,3.4,1.5,3.4,3.3H8.6C8.6,2.8,10.1,1.3,12,1.3z M18,22.7H6c-1.2,0-2.3-0.8-2.3-1.8L5,6h2.2v2c0,0.4,0.3,0.7,0.7,0.7
			c0.4,0,0.7-0.3,0.7-0.7V6h6.8v2c0,0.4,0.3,0.7,0.7,0.7c0.4,0,0.7-0.3,0.7-0.7V6H19l1.3,14.8C20.3,21.9,19.2,22.7,18,22.7z"/>
	</g>
</g>
</svg>
