<?xml version="1.0" encoding="utf-8"?>
<!-- Generator: Adobe Illustrator 23.0.2, SVG Export Plug-In . SVG Version: 6.00 Build 0)  -->
<svg version="1.0" xmlns="http://www.w3.org/2000/svg" xmlns:xlink="http://www.w3.org/1999/xlink" x="0px" y="0px" width="24px"
	 height="24px" viewBox="0 0 24 24" enable-background="new 0 0 24 24" xml:space="preserve">
<g id="White">
	<path fill="#FFFFFF" d="M23.8,11.5l-7.9-7.9c-0.3-0.3-0.8-0.3-1,0s-0.3,0.8,0,1l6.7,6.7H0.7C0.3,11.3,0,11.6,0,12
		c0,0.4,0.3,0.7,0.7,0.7h20.8l-6.7,6.7c-0.3,0.3-0.3,0.8,0,1c0.1,0.1,0.3,0.2,0.5,0.2s0.4-0.1,0.5-0.2l7.9-7.9
		C24.1,12.2,24.1,11.8,23.8,11.5z"/>
</g>
<g id="Black">
</g>
<g id="Color">
</g>
</svg>
