<?xml version="1.0" encoding="utf-8"?>
<!-- Generator: Adobe Illustrator 23.0.2, SVG Export Plug-In . SVG Version: 6.00 Build 0)  -->
<svg version="1.0" xmlns="http://www.w3.org/2000/svg" xmlns:xlink="http://www.w3.org/1999/xlink" x="0px" y="0px" width="24px"
	 height="24px" viewBox="0 0 24 24" enable-background="new 0 0 24 24" xml:space="preserve">
<g id="White">
</g>
<g id="Black">
	<g>
		<path d="M7.2,15.8h13.2c1.5,0,2.7-1.2,2.7-2.7V7.5c0,0,0,0,0,0c0,0,0,0,0,0c0,0,0,0,0,0c0,0,0,0,0,0s0,0,0,0c0,0,0,0,0,0
			c0,0,0,0,0,0c0,0,0,0,0,0c0,0,0,0,0,0c0,0,0,0,0,0c0,0,0,0,0,0c0,0,0,0,0,0c0,0,0,0,0,0c0,0,0,0,0,0c0,0,0,0,0,0s0,0,0,0s0,0,0,0
			c0,0,0,0,0,0c0,0,0,0,0,0c0,0,0,0,0,0c0,0,0,0,0,0c0,0,0,0,0,0c0,0,0,0,0,0c0,0,0,0,0,0c0,0,0,0,0,0c0,0,0,0,0,0c0,0,0,0,0,0
			c0,0,0,0,0,0c0,0,0,0,0,0c0,0,0,0,0,0L5.8,4.5V2.2c0,0,0,0,0-0.1c0,0,0,0,0,0c0,0,0,0,0,0c0,0,0,0,0,0c0,0,0,0,0,0c0,0,0,0,0,0
			c0,0,0,0,0,0c0,0,0,0,0,0c0,0,0,0,0,0c0,0,0,0,0,0c0,0,0,0,0,0c0,0,0,0,0,0c0,0,0,0,0,0c0,0,0,0,0,0c0,0,0,0,0,0c0,0,0,0,0,0
			c0,0,0,0,0,0c0,0,0,0,0,0c0,0,0,0,0,0c0,0,0,0,0,0c0,0,0,0,0,0c0,0,0,0-0.1,0L1.8,0.1C1.4-0.1,1,0.1,0.9,0.4s0,0.7,0.4,0.9
			l3.2,1.4v3v0.5v3.7v3.3v4.1c0,1.4,1,2.5,2.4,2.7c-0.2,0.4-0.4,0.9-0.4,1.4c0,1.5,1.2,2.7,2.7,2.7s2.7-1.2,2.7-2.7
			c0-0.5-0.1-1-0.4-1.4h6c-0.2,0.4-0.4,0.9-0.4,1.4c0,1.5,1.2,2.7,2.7,2.7s2.7-1.2,2.7-2.7s-1.2-2.7-2.7-2.7H7.2
			c-0.8,0-1.4-0.6-1.4-1.4v-1.8C6.2,15.7,6.7,15.8,7.2,15.8z M10.5,21.3c0,0.7-0.6,1.4-1.4,1.4c-0.7,0-1.4-0.6-1.4-1.4
			c0-0.7,0.6-1.4,1.4-1.4C9.9,20,10.5,20.6,10.5,21.3z M21.1,21.3c0,0.7-0.6,1.4-1.4,1.4c-0.7,0-1.4-0.6-1.4-1.4
			c0-0.7,0.6-1.4,1.4-1.4C20.5,20,21.1,20.6,21.1,21.3z M20.4,14.5H7.2c-0.8,0-1.4-0.6-1.4-1.4V9.8V6.1V5.9l16,2.2v5
			C21.8,13.8,21.2,14.5,20.4,14.5z"/>
	</g>
</g>
<g id="Color">
</g>
</svg>
