<?xml version="1.0" encoding="utf-8"?>
<!-- Generator: Adobe Illustrator 23.0.2, SVG Export Plug-In . SVG Version: 6.00 Build 0)  -->
<svg version="1.0" xmlns="http://www.w3.org/2000/svg" xmlns:xlink="http://www.w3.org/1999/xlink" x="0px" y="0px" width="24px"
	 height="24px" viewBox="0 0 24 24" enable-background="new 0 0 24 24" xml:space="preserve">
<g id="White">
</g>
<g id="Black">
</g>
<g id="Color">
	<g>
		<path fill="#00A12F" d="M20.6,1C21.9,1,23,2.1,23,3.5v16.9c0,1.4-1.1,2.5-2.4,2.5H3.4C2.1,23,1,21.9,1,20.5V3.5C1,2.1,2.1,1,3.4,1
			H20.6 M3.4,21.8h17.1c0.7,0,1.3-0.6,1.3-1.4V3.5c0-0.8-0.6-1.4-1.3-1.4H3.4c-0.7,0-1.3,0.6-1.3,1.4v16.9
			C2.1,21.2,2.7,21.8,3.4,21.8"/>
	</g>
	<g>
		<path fill="#00A12F" d="M10.7,18.4c-0.2,0-0.3-0.1-0.5-0.2l-4.4-4.4c-0.3-0.3-0.3-0.7,0-0.9c0.3-0.3,0.7-0.3,0.9,0l3.8,3.8
			l6.6-10.7c0.2-0.3,0.6-0.4,0.9-0.2c0.3,0.2,0.4,0.6,0.2,0.9l-7,11.4C11.1,18.2,11,18.4,10.7,18.4C10.7,18.4,10.7,18.4,10.7,18.4z"
			/>
	</g>
</g>
</svg>
