<?xml version="1.0" encoding="utf-8"?>
<!-- Generator: Adobe Illustrator 23.0.2, SVG Export Plug-In . SVG Version: 6.00 Build 0)  -->
<svg version="1.0" xmlns="http://www.w3.org/2000/svg" xmlns:xlink="http://www.w3.org/1999/xlink" x="0px" y="0px" width="24px"
	 height="24px" viewBox="0 0 24 24" enable-background="new 0 0 24 24" xml:space="preserve">
<g id="White">
</g>
<g id="Black">
	<g>
		<path d="M19,7.3l-3.1-3.1c-0.3-0.3-0.7-0.2-0.9,0l-3.1,3.1c-0.1,0.1-0.2,0.3-0.2,0.5c0,0.2,0.1,0.3,0.2,0.5c0.3,0.3,0.7,0.3,0.9,0
			l2-2l0,13.1c0,0.4,0.3,0.7,0.7,0.7s0.7-0.3,0.7-0.7V6.2l2,2c0.2,0.2,0.7,0.2,0.9,0c0.1-0.1,0.2-0.3,0.2-0.5
			C19.2,7.6,19.1,7.4,19,7.3z"/>
		<path d="M11,15.8c-0.3-0.3-0.7-0.3-0.9,0l-2,2V4.7C8.1,4.3,7.8,4,7.4,4S6.8,4.3,6.8,4.7v13.1l-2-2c-0.1-0.1-0.3-0.2-0.5-0.2h0
			c-0.2,0-0.3,0.1-0.5,0.2c-0.1,0.1-0.2,0.3-0.2,0.5c0,0.2,0.1,0.3,0.2,0.5l3.1,3.1C7.1,19.9,7.2,20,7.4,20c0.2,0,0.3-0.1,0.5-0.2
			l3.1-3.1C11.2,16.5,11.2,16,11,15.8L11,15.8z"/>
	</g>
</g>
<g id="Color">
</g>
</svg>
