<?xml version="1.0" encoding="utf-8"?>
<!-- Generator: Adobe Illustrator 23.0.2, SVG Export Plug-In . SVG Version: 6.00 Build 0)  -->
<svg version="1.0" xmlns="http://www.w3.org/2000/svg" xmlns:xlink="http://www.w3.org/1999/xlink" x="0px" y="0px" width="24px"
	 height="24px" viewBox="0 0 24 24" enable-background="new 0 0 24 24" xml:space="preserve">
<g id="White">
	<g>
		<path fill="#666666" d="M20.1,7.3l-3.1-3.1c-0.3-0.3-0.7-0.2-0.9,0L13,7.3c-0.1,0.1-0.2,0.3-0.2,0.5c0,0.2,0.1,0.3,0.2,0.5
			c0.3,0.3,0.7,0.3,0.9,0l2-2l0,13.1c0,0.4,0.3,0.7,0.7,0.7s0.7-0.3,0.7-0.7V6.2l2,2c0.2,0.2,0.7,0.2,0.9,0c0.1-0.1,0.2-0.3,0.2-0.5
			C20.3,7.6,20.3,7.4,20.1,7.3z"/>
		<path fill="#FFFFFF" d="M12.1,15.8c-0.3-0.3-0.7-0.3-0.9,0l-2,2V4.7C9.2,4.3,8.9,4,8.5,4S7.9,4.3,7.9,4.7v13.1l-2-2
			c-0.1-0.1-0.3-0.2-0.5-0.2h0c-0.2,0-0.3,0.1-0.5,0.2c-0.1,0.1-0.2,0.3-0.2,0.5c0,0.2,0.1,0.3,0.2,0.5l3.1,3.1
			C8.2,19.9,8.4,20,8.6,20c0.2,0,0.3-0.1,0.5-0.2l3.1-3.1C12.4,16.5,12.4,16,12.1,15.8L12.1,15.8z"/>
	</g>
</g>
<g id="Black">
</g>
<g id="Color">
</g>
</svg>
