<?xml version="1.0" encoding="utf-8"?>
<!-- Generator: Adobe Illustrator 23.0.2, SVG Export Plug-In . SVG Version: 6.00 Build 0)  -->
<svg version="1.0" xmlns="http://www.w3.org/2000/svg" xmlns:xlink="http://www.w3.org/1999/xlink" x="0px" y="0px" width="24px"
	 height="24px" viewBox="0 0 24 24" enable-background="new 0 0 24 24" xml:space="preserve">
<g id="White">
</g>
<g id="Black">
	<g>
		<path d="M20.1,7.3L17,4.2c-0.3-0.3-0.7-0.2-0.9,0L13,7.3c-0.1,0.1-0.2,0.3-0.2,0.5c0,0.2,0.1,0.3,0.2,0.5c0.3,0.3,0.7,0.3,0.9,0
			l2-2l0,13.1c0,0.4,0.3,0.7,0.7,0.7s0.7-0.3,0.7-0.7V6.2l2,2c0.2,0.2,0.7,0.2,0.9,0c0.1-0.1,0.2-0.3,0.2-0.5
			C20.3,7.6,20.2,7.4,20.1,7.3z"/>
		<path fill="#666666" d="M12,15.8c-0.3-0.3-0.7-0.3-0.9,0l-2,2V4.7C9.1,4.3,8.8,4,8.5,4S7.8,4.3,7.8,4.7v13.1l-2-2
			c-0.1-0.1-0.3-0.2-0.5-0.2h0c-0.2,0-0.3,0.1-0.5,0.2c-0.1,0.1-0.2,0.3-0.2,0.5c0,0.2,0.1,0.3,0.2,0.5L8,19.8
			C8.1,19.9,8.3,20,8.5,20c0.2,0,0.3-0.1,0.5-0.2l3.1-3.1C12.3,16.5,12.3,16,12,15.8L12,15.8z"/>
	</g>
</g>
<g id="Color">
</g>
</svg>
