<?xml version="1.0" encoding="utf-8"?>
<!-- Generator: Adobe Illustrator 23.0.2, SVG Export Plug-In . SVG Version: 6.00 Build 0)  -->
<svg version="1.0" xmlns="http://www.w3.org/2000/svg" xmlns:xlink="http://www.w3.org/1999/xlink" x="0px" y="0px" width="24px"
	 height="24px" viewBox="0 0 24 24" enable-background="new 0 0 24 24" xml:space="preserve">
<g id="White">
</g>
<g id="Black">
	<path d="M15.6,15.8L15.6,15.8c-0.3-0.3-0.7-0.3-0.9,0l-2,2V4.7C12.7,4.3,12.4,4,12,4c-0.4,0-0.7,0.3-0.7,0.7v13.1l-2-2
		c-0.3-0.3-0.7-0.3-0.9,0c-0.3,0.3-0.3,0.7,0,0.9l3.1,3.1c0.1,0.1,0.3,0.2,0.5,0.2c0.2,0,0.3-0.1,0.5-0.2l3.1-3.1
		C15.8,16.5,15.8,16,15.6,15.8z"/>
</g>
<g id="Color">
</g>
</svg>
