<?xml version="1.0" encoding="utf-8"?>
<!-- Generator: Adobe Illustrator 23.0.2, SVG Export Plug-In . SVG Version: 6.00 Build 0)  -->
<svg version="1.0" xmlns="http://www.w3.org/2000/svg" xmlns:xlink="http://www.w3.org/1999/xlink" x="0px" y="0px" width="24px"
	 height="24px" viewBox="0 0 24 24" enable-background="new 0 0 24 24" xml:space="preserve">
<g id="White">
</g>
<g id="Black">
	<path d="M15.6,7.3l-3.1-3.1c-0.3-0.3-0.7-0.3-0.9,0L8.4,7.3C8.2,7.5,8.2,8,8.4,8.2c0.1,0.1,0.3,0.2,0.5,0.2h0
		c0.2,0,0.3-0.1,0.5-0.2l2-2l0,13.1c0,0.4,0.3,0.7,0.7,0.7c0.4,0,0.7-0.3,0.7-0.7V6.2l2,2c0.2,0.2,0.7,0.2,0.9,0
		C15.8,8,15.8,7.5,15.6,7.3z"/>
</g>
<g id="Color">
</g>
</svg>
